<svg width="211" height="211" viewBox="0 0 211 211" fill="none" xmlns="http://www.w3.org/2000/svg">
<path d="M170.727 58.9091C170.727 58.9091 124.136 124.136 54.25 124.136M54.25 124.136C35.6136 124.136 3 133.455 3 170.727V208H105.5V170.727C105.5 147.432 133.455 161.409 170.727 96.1818L156.75 82.2045M54.25 124.136C62.8997 124.136 71.1951 120.7 77.3113 114.584C83.4276 108.468 86.8636 100.172 86.8636 91.5227C86.8636 82.8731 83.4276 74.5777 77.3113 68.4614C71.1951 62.3452 62.8997 58.9091 54.25 58.9091C45.6003 58.9091 37.3049 62.3452 31.1887 68.4614C25.0724 74.5777 21.6364 82.8731 21.6364 91.5227C21.6364 100.172 25.0724 108.468 31.1887 114.584C37.3049 120.7 45.6003 124.136 54.25 124.136ZM21.6364 40.2727V12.3182H208V142.773H180.045M96.1818 3H133.455V21.6364H96.1818V3Z" stroke="white" stroke-width="5"/>
</svg>
